<?xml version="1.0" encoding="UTF-8" standalone="no"?>
<svg xmlns="http://www.w3.org/2000/svg" fill="none" height="720" viewBox="0 0 40 40" width="720">
<mask height="40" id="mask0" mask-type="alpha" maskUnits="userSpaceOnUse" width="40" x="0" y="0">
<rect fill="#C4C4C4" height="40" width="40"/>
</mask>
<g mask="url(#mask0)">
<path d="M30.155 19.9214L30.4334 20.3367L30.4745 20.3092L30.5093 20.2742L30.155 19.9214ZM30.155 19.9214C30.4334 20.3367 30.433 20.337 30.4326 20.3372L30.4318 20.3378L30.4299 20.339L30.4255 20.3419L30.4142 20.3491C30.4055 20.3546 30.3945 20.3612 30.3814 20.3688C30.3552 20.384 30.32 20.403 30.277 20.4233C30.1923 20.4632 30.0707 20.511 29.9237 20.5401C29.6207 20.6 29.1986 20.5791 28.812 20.2511C28.4466 19.9411 28.1841 19.4147 28.0313 18.6315C27.8772 17.8411 27.823 16.7287 27.9282 15.1673C28.0227 13.7635 27.5473 12.3326 26.7346 10.9507C25.9229 9.57059 24.7945 8.27304 23.6378 7.15056C22.4831 6.02996 21.3133 5.09633 20.431 4.44231C20.18 4.25626 19.9526 4.09313 19.756 3.95504C19.7613 4.63748 19.7593 5.77526 19.7339 7.65177C19.7161 8.96767 19.5163 9.90165 19.1861 10.551C18.8467 11.2183 18.37 11.5802 17.854 11.7215C17.3601 11.8568 16.8908 11.7735 16.5693 11.6745C16.5069 11.6553 16.4486 11.635 16.395 11.6147C15.2131 13.0864 14.6274 15.3525 14.3512 17.3784C14.2063 18.4413 14.1502 19.4095 14.1303 20.112C14.1204 20.463 14.1196 20.7467 14.1212 20.9418C14.122 21.0393 14.1234 21.1146 14.1246 21.165L14.1262 21.2215L14.1266 21.2351L14.1267 21.2381L14.1267 21.2386L14.1267 21.2387L14.1267 21.2387L14.1356 21.4733L13.9606 21.6299C13.0199 22.4722 12.1489 22.8096 11.3693 22.5471C10.626 22.2968 10.2011 21.5702 9.94965 20.9076C9.71939 20.301 9.58758 19.6238 9.51131 19.0663C9.4625 19.1345 9.41236 19.2062 9.36121 19.2812C8.85421 20.0246 8.25537 21.086 7.87666 22.3651C7.1289 24.8907 7.21795 28.3189 10.7438 31.9214C10.7439 31.9215 10.7439 31.9215 10.744 31.9216L10.7444 31.922L10.7485 31.9263L10.7612 31.9394C10.7714 31.9502 10.7851 31.965 10.8015 31.9832C10.8338 32.0192 10.8778 32.0703 10.9244 32.131C11.0049 32.236 11.1429 32.4317 11.1959 32.6553C11.2241 32.7744 11.24 32.9504 11.1587 33.1324C11.0719 33.3271 10.9114 33.4462 10.7462 33.5088C10.4616 33.6166 10.0819 33.5893 9.64634 33.5019L9.74464 33.0117L9.64633 33.5019C9.61481 33.4956 9.58379 33.4891 9.55328 33.4825C9.62108 33.55 9.69453 33.6195 9.77412 33.6906C10.8262 34.6306 12.953 35.8615 17.2196 36.8182C17.4013 36.8552 19.9853 37.3585 22.8919 36.7716C26.1541 36.0278 28.033 34.976 29.0848 34.14C29.227 34.027 29.3543 33.9177 29.4681 33.8135C29.1801 33.8238 28.8516 33.7712 28.6424 33.5037C28.393 33.1848 28.5067 32.8113 28.5678 32.6536C28.6439 32.4574 28.7632 32.276 28.8487 32.1575C28.8939 32.0949 28.935 32.0425 28.9653 32.0053C28.9805 31.9867 28.9931 31.9716 29.0023 31.9607L29.0136 31.9475L29.0172 31.9434L29.0185 31.9419L29.0189 31.9414L29.0191 31.9412C29.0192 31.941 29.0193 31.9409 29.3947 32.2712L29.0193 31.9409L29.0663 31.8875L29.1264 31.8493C32.784 29.5233 33.1361 25.8487 32.558 22.7685C32.276 21.2662 31.7752 19.936 31.3537 19.0344C31.2857 19.1876 31.2103 19.3275 31.1371 19.4499C30.9911 19.6938 30.8368 19.8968 30.7195 20.0385C30.6605 20.1098 30.61 20.1666 30.5734 20.2066C30.555 20.2266 30.5401 20.2424 30.5292 20.2537L30.516 20.2674L30.5118 20.2717L30.5104 20.2731L30.5098 20.2737L30.5096 20.274C30.5094 20.2741 30.5093 20.2742 30.155 19.9214Z" fill="url(#paint0_linear)" stroke="#FF412F"/>
<path d="M28.2181 27.8484C29.7732 25.3824 28.581 23.546 28.581 23.546C26.143 24.815 25.4132 23.9288 25.1968 23.2106C25.1111 22.9263 25.0964 22.6244 25.1458 22.3314C26.7234 12.9738 20.5992 7.92011 20.7535 9.16964C20.8002 9.54741 20.736 10.0432 20.6235 10.5523C20.3567 11.7578 19.8462 12.8935 19.1502 13.9082C18.1914 15.3059 16.4595 18.3034 15.518 22.8115C14.1702 29.2652 10.2824 24.5955 10.2824 24.5955C10.2824 24.5955 8.01016 32.4622 17.2902 37.339C17.8368 37.4347 19.5654 37.6856 21.6498 37.4659C27.7434 34.5627 29.9289 28.898 29.9289 28.898C29.9289 28.898 26.663 30.3144 28.2181 27.8484Z" fill="url(#paint1_radial)"/>
<path d="M27.5897 24.0773C27.5909 24.0744 27.5916 24.0726 27.5916 24.0726L27.5897 24.0773Z" fill="url(#paint2_radial)"/>
<path d="M25.8332 27.9105C25.8344 27.9076 25.8351 27.9058 25.8351 27.9058L25.8332 27.9105Z" fill="url(#paint3_radial)"/>
<path d="M25.831 27.9092C25.8041 27.9784 25.2511 29.3381 23.1965 29.6847C21.0881 30.0404 22.0105 22.611 22.0105 22.611C16.8271 25.0966 17.7935 30.9297 17.7935 30.9297C17.7935 30.9297 16.9656 31.7381 15.9046 30.9297C15.5443 30.6552 16.3357 35.6167 19.7247 37.525C20.3539 37.5644 21.1387 37.572 21.9976 37.4862C24.3293 35.8459 25.5686 30.7075 25.5686 30.7075L24.499 31.376L25.831 27.9092Z" fill="url(#paint4_radial)"/>
<g filter="url(#filter0_f)">
<path d="M24.6499 29.7243C24.6288 29.7788 24.1953 30.8496 22.5846 31.1225C20.9316 31.4026 21.6548 25.5521 21.6548 25.5521C17.5911 27.5094 18.3488 32.1029 18.3488 32.1029C18.3488 32.1029 17.6998 32.7395 16.868 32.1029C16.5855 31.8867 17.206 35.7938 19.8628 37.2965C20.3561 37.3275 20.9713 37.3336 21.6447 37.2659C23.4727 35.9743 24.4442 31.9279 24.4442 31.9279L23.6057 32.4543L24.6499 29.7243Z" fill="white"/>
</g>
<path d="M9.18095 14.4207C8.78292 15.1129 9.01511 16.2473 9.18095 16.7279C9.59556 16.3434 10.4745 15.459 10.6735 14.9975C10.8725 14.5361 10.9223 12.6903 10.9223 11.8251L10.6735 12.4019C10.3418 12.7865 9.57898 13.7286 9.18095 14.4207Z" fill="#FF412F"/>
</g>
<defs>
<filter color-interpolation-filters="sRGB" filterUnits="userSpaceOnUse" height="19.7667" id="filter0_f" width="15.8445" x="12.8055" y="21.5521">
<feFlood flood-opacity="0" result="BackgroundImageFix"/>
<feBlend in="SourceGraphic" in2="BackgroundImageFix" mode="normal" result="shape"/>
<feGaussianBlur result="effect1_foregroundBlur" stdDeviation="2"/>
</filter>
<linearGradient gradientUnits="userSpaceOnUse" id="paint0_linear" x1="20.1399" x2="20.1399" y1="3" y2="37.5542">
<stop stop-color="#EE370A"/>
<stop offset="0.430868" stop-color="#FF7C24"/>
<stop offset="1" stop-color="#FF5025"/>
</linearGradient>
<radialGradient cx="0" cy="0" gradientTransform="translate(23.6694 14.2773) rotate(98.9998) scale(23.5664 16.4073)" gradientUnits="userSpaceOnUse" id="paint1_radial" r="1">
<stop stop-color="#FF8E2C"/>
<stop offset="1" stop-color="#FFB747"/>
</radialGradient>
<radialGradient cx="0" cy="0" gradientTransform="translate(27.5907 24.0749) rotate(90) scale(0.00237334 0.000934765)" gradientUnits="userSpaceOnUse" id="paint2_radial" r="1">
<stop stop-color="#FEFEE5"/>
<stop offset="1" stop-color="#FFD34C"/>
</radialGradient>
<radialGradient cx="0" cy="0" gradientTransform="translate(25.8342 27.9081) rotate(90) scale(0.00237334 0.000934765)" gradientUnits="userSpaceOnUse" id="paint3_radial" r="1">
<stop stop-color="#FEFEE5"/>
<stop offset="1" stop-color="#FFD34C"/>
</radialGradient>
<radialGradient cx="0" cy="0" gradientTransform="translate(20.8279 30.0822) rotate(90) scale(7.47114 5.00305)" gradientUnits="userSpaceOnUse" id="paint4_radial" r="1">
<stop offset="0.0350108" stop-color="#FEFEE5"/>
<stop offset="1" stop-color="#FFD34C"/>
</radialGradient>
</defs>
</svg>
