<?xml version="1.0" encoding="UTF-8" standalone="no"?>
<svg xmlns="http://www.w3.org/2000/svg" fill="none" height="720" viewBox="0 0 40 40" width="720">
<mask height="40" id="mask0" mask-type="alpha" maskUnits="userSpaceOnUse" width="40" x="0" y="0">
<rect fill="#C4C4C4" height="40" width="40"/>
</mask>
<g mask="url(#mask0)">
<path d="M25.978 36.3774C24.4666 36.3774 23.0007 35.8196 21.6188 34.7124C20.523 33.8328 9.35837 22.9486 9.24451 22.8404C8.7948 22.3907 8.51159 21.9253 8.43474 21.4969C8.35362 21.0529 8.49024 20.6644 8.8503 20.3043C9.18616 19.9685 9.59603 19.7906 10.0372 19.7906C10.5752 19.7906 11.1273 20.0453 11.5884 20.5093L16.2023 24.9424C16.2834 25.0207 16.3887 25.0591 16.4912 25.0591C16.5994 25.0591 16.7047 25.0178 16.7858 24.9367C16.9466 24.7759 16.9466 24.5155 16.7887 24.3546L9.42241 16.7493C8.68379 16.0107 8.33796 14.8821 9.21463 14.0055C9.55049 13.6696 9.96036 13.4917 10.4015 13.4917C10.9395 13.4917 11.4917 13.7465 11.9528 14.2104L19.4884 21.5567C19.5695 21.635 19.6748 21.6763 19.7801 21.6763C19.8854 21.6763 19.9936 21.635 20.0747 21.5539C20.2355 21.3931 20.2384 21.1326 20.0776 20.969L11.0263 11.6914C10.6079 11.273 10.3546 10.7706 10.3105 10.2825C10.2692 9.78581 10.4442 9.32471 10.8185 8.95042C11.1544 8.61456 11.5643 8.43666 12.0054 8.43666C12.5434 8.43666 13.0956 8.69141 13.5567 9.15251L22.7872 18.1525C22.8684 18.2308 22.9737 18.2721 23.079 18.2721C23.1843 18.2721 23.2925 18.2308 23.3736 18.1497C23.5344 17.9889 23.5372 17.7284 23.3764 17.5648L16.6734 10.6753C16.2521 10.254 15.9988 9.7545 15.9575 9.26636C15.9163 8.76968 16.0913 8.30858 16.4656 7.93429C16.8015 7.59843 17.2113 7.42053 17.6525 7.42053C18.1905 7.42053 18.7426 7.67528 19.2037 8.13922C21.6615 10.5529 28.0785 16.8646 28.2948 17.098C28.4671 17.3058 28.6634 17.3527 28.7944 17.3527C29.2768 17.3527 29.533 16.7892 29.5743 16.2313C29.6212 15.5823 29.449 14.8081 29.2669 13.9898C29.0392 12.9694 28.8029 11.912 29.0648 11.2929C29.5785 10.0776 30.7654 9.09558 31.403 9.09558C31.4671 9.09558 31.5226 9.10697 31.5695 9.12832C32.718 9.66627 32.6767 10.3579 32.4547 12.0088L32.4135 12.3276C32.2 13.9699 33.0567 16.032 33.8124 17.8508C34.1198 18.5923 34.4116 19.2939 34.6137 19.9201C34.736 20.3001 34.9211 20.7057 35.1374 21.1739C36.2887 23.6929 38.0306 27.497 32.3878 33.1398C30.2303 35.2902 28.0757 36.3774 25.978 36.3774Z" fill="url(#paint0_radial)"/>
<path d="M17.6518 7.83316C18.0731 7.83316 18.5313 8.04947 18.9142 8.4323C22.3995 11.8593 27.6566 17.0282 27.9839 17.3726C28.2814 17.7141 28.6158 17.7668 28.7937 17.7668C29.4427 17.7668 29.9223 17.1619 29.9863 16.2568C30.0361 15.5466 29.8582 14.7454 29.6704 13.8958C29.4683 12.9835 29.2349 11.9475 29.4455 11.4522C29.9166 10.3365 31.0024 9.51817 31.4066 9.50963C32.2363 9.90384 32.2633 10.2753 32.0385 11.9518L31.9972 12.2705C31.7695 14.0239 32.649 16.1415 33.4232 18.0059C33.7278 18.7388 34.0138 19.4319 34.2145 20.0424C34.3454 20.4451 34.5447 20.8806 34.7553 21.3403C35.3103 22.5557 36.0034 24.0671 35.8924 25.9214C35.7586 28.1515 34.5162 30.4158 32.0883 32.8408C30.0162 34.9129 27.9597 35.9646 25.9759 35.9646C24.5612 35.9646 23.1822 35.4352 21.8786 34.3892C20.982 33.6705 12.6651 25.5941 9.54412 22.5514C8.76138 21.7687 8.62903 21.1112 9.14421 20.5988C9.40465 20.3384 9.70494 20.2075 10.038 20.2075C10.4592 20.2075 10.9175 20.4238 11.2946 20.8038L11.306 20.8152L15.9142 25.2426C16.075 25.3977 16.2828 25.476 16.4905 25.476C16.704 25.476 16.9175 25.3935 17.0811 25.2312C17.3999 24.9096 17.4056 24.3901 17.0897 24.0656L9.7149 16.4475C9.36765 16.1003 9.15702 15.6932 9.12429 15.299C9.09156 14.9219 9.22106 14.586 9.50996 14.2971C9.7704 14.0367 10.0707 13.9058 10.4037 13.9058C10.825 13.9058 11.2832 14.1221 11.6689 14.5077L19.2016 21.8484C19.3625 22.0063 19.5731 22.0846 19.7809 22.0846C19.9943 22.0846 20.2078 22.0035 20.3686 21.8398C20.6903 21.5182 20.6931 20.9959 20.3772 20.6686L11.3188 11.3925C10.4507 10.5243 10.667 9.69179 11.1167 9.24208C11.3771 8.98164 11.6774 8.85071 12.0104 8.85071C12.4317 8.85071 12.89 9.06703 13.2756 9.4527L22.5034 18.4499C22.6642 18.6079 22.8748 18.6861 23.0826 18.6861C23.2961 18.6861 23.5095 18.605 23.6703 18.4413C23.992 18.1197 23.9948 17.5974 23.6789 17.2729L16.9644 10.3778C16.6172 10.0305 16.4066 9.62348 16.3738 9.22927C16.3411 8.85213 16.4706 8.51627 16.7595 8.22737C17.0199 7.96693 17.3202 7.83316 17.6518 7.83316ZM17.6518 7.00061C17.1253 7.00061 16.6058 7.19985 16.1703 7.63534C15.1997 8.60593 15.399 9.98781 16.3724 10.9612L23.0783 17.8507L13.8534 8.8564C13.3155 8.31845 12.6551 8.01817 12.009 8.01817C11.4825 8.01817 10.963 8.21741 10.5275 8.65289C9.55693 9.62348 9.75617 11.0054 10.7296 11.9788L19.7794 21.2535L12.2481 13.9143C11.7102 13.3763 11.0498 13.0761 10.4037 13.0761C9.87714 13.0761 9.35769 13.2753 8.9222 13.7108C7.95161 14.6814 8.15085 16.0633 9.12429 17.0367L16.4934 24.6378L11.8852 20.2103C11.3473 19.6724 10.6869 19.3721 10.0408 19.3721C9.51423 19.3721 8.99478 19.5713 8.5593 20.0068C7.58871 20.9774 7.98434 22.1629 8.9592 23.1392C8.9592 23.1392 20.2377 34.1373 21.3634 35.0382C22.3312 35.8152 23.9208 36.7972 25.9801 36.7972C27.8615 36.7972 30.1329 35.9789 32.6803 33.4286C39.567 26.5419 35.7771 22.1501 35.0086 19.7834C34.2956 17.5803 32.548 14.5391 32.8283 12.373C33.0503 10.6496 33.3193 9.47974 31.7496 8.74397C31.6471 8.69416 31.5304 8.67139 31.408 8.67139C30.52 8.67139 29.2164 9.86115 28.687 11.1206C28.1519 12.3915 29.2662 14.7739 29.1637 16.1928C29.1381 16.5429 28.9972 16.9285 28.8008 16.9285C28.7425 16.9285 28.6784 16.8958 28.6115 16.8147C28.4891 16.6681 19.5033 7.83885 19.5033 7.83885C18.9626 7.30374 18.2994 7.00061 17.6518 7.00061Z" fill="#EDA600"/>
<path d="M28.3349 16.8991C27.1571 19.5283 27.8258 22.4463 29.4899 25.4859C29.7192 25.9051 30.1118 25.7012 29.9117 25.268C27.8131 20.7745 29.6938 16.7155 29.6938 16.7155L28.3349 16.8991Z" fill="#EDA600"/>
<path d="M10.9534 28.7976C9.01262 29.1617 7.12544 27.9039 6.75446 25.9991" stroke="#633D84" stroke-linecap="round" stroke-linejoin="round" stroke-miterlimit="10"/>
<path d="M22.0701 5.98289C23.9519 5.76699 25.6717 7.09921 25.8966 8.94706" stroke="#633D84" stroke-linecap="round" stroke-linejoin="round" stroke-miterlimit="10"/>
<path d="M11.1638 30.6866C8.25257 31.2328 5.4395 29.3579 4.88302 26.5006" stroke="#633D84" stroke-linecap="round" stroke-linejoin="round" stroke-miterlimit="10"/>
<path d="M21.9997 4.16086C24.8224 3.83702 27.3859 5.82284 27.7233 8.59463" stroke="#633D84" stroke-linecap="round" stroke-linejoin="round" stroke-miterlimit="10"/>
</g>
<defs>
<radialGradient cx="0" cy="0" gradientTransform="translate(16.144 14.4419) rotate(-45) scale(24.9241)" gradientUnits="userSpaceOnUse" id="paint0_radial" r="1">
<stop offset="0.3533" stop-color="#FFCA28"/>
<stop offset="0.8723" stop-color="#FFB300"/>
</radialGradient>
</defs>
</svg>
