<?xml version="1.0" encoding="UTF-8" standalone="no"?>
<svg xmlns="http://www.w3.org/2000/svg" fill="none" height="720" viewBox="0 0 40 40" width="720">
<mask height="40" id="mask0" mask-type="alpha" maskUnits="userSpaceOnUse" width="40" x="0" y="0">
<rect fill="#C4C4C4" height="40" width="40"/>
</mask>
<g mask="url(#mask0)">
<path d="M33.2897 32.09H6.70868C6.04007 32.09 5.5 31.5493 5.5 30.8829V18.2287C5.5 17.5604 6.04038 17.02 6.70868 17.02H33.2913C33.9583 17.02 34.5 17.5607 34.5 18.2287V30.882C34.4989 31.5492 33.9582 32.09 33.2897 32.09Z" fill="#FFB000" stroke="#EDA600"/>
<path d="M33.0001 21V7.11807C33.0001 4.84665 30.8445 3 28.1912 3H11.809C9.15886 3 7.00006 4.84526 7.00006 7.11807V21H33.0001Z" fill="url(#paint0_linear)"/>
<path d="M8.39786 23.1847V6.88148C8.39786 4.94916 9.97461 3.37563 11.9069 3.37563H28.5319C30.4675 3.37563 32.041 4.94916 32.041 6.88148V23.1847H33.4134V6.88148C33.415 4.18814 31.2253 2 28.5336 2H11.9069C9.21681 2 7.02545 4.18814 7.02545 6.88148V23.1847H8.39786Z" fill="#6C44A2"/>
<path d="M28.9545 15.1299H11.4912V16.5602H28.9545V15.1299Z" fill="white"/>
<path d="M28.9545 11.5667H11.4912V12.997H28.9545V11.5667Z" fill="white"/>
<path d="M28.9545 7.73999H11.4912V9.17032H28.9545V7.73999Z" fill="white"/>
<path d="M33.2897 37.5H6.70868C6.06647 37.5 5.5 36.9423 5.5 36.1926V22.8074C5.5 22.0591 6.06677 21.5 6.70868 21.5H33.2913C33.9322 21.5 34.5 22.058 34.5 22.8074V36.1918C34.4988 36.9423 33.9318 37.5 33.2897 37.5Z" fill="url(#paint1_radial)" stroke="#EDA600"/>
<path d="M24.1334 28.2701C24.1334 26.9703 23.0701 25.916 21.7592 25.916C20.9628 25.916 20.2611 26.3044 19.8284 26.902C19.3979 26.3066 18.6941 25.916 17.8998 25.916C16.5868 25.9139 15.5234 26.9682 15.5234 28.2701C15.5234 28.4536 15.5471 28.6329 15.588 28.8058C15.9173 30.8375 18.1968 32.9803 19.8284 33.5693C21.46 32.9803 23.7395 30.8375 24.0689 28.8058C24.1098 28.6329 24.1334 28.4536 24.1334 28.2701Z" fill="#B98200"/>
</g>
<defs>
<linearGradient gradientUnits="userSpaceOnUse" id="paint0_linear" x1="20.0001" x2="20.0001" y1="3" y2="22.5964">
<stop stop-color="#7C55B0"/>
<stop offset="1" stop-color="#7F55B8"/>
</linearGradient>
<radialGradient cx="0" cy="0" gradientTransform="translate(13.3101 25.1221) rotate(-28.6448) scale(21.5836 18.1607)" gradientUnits="userSpaceOnUse" id="paint1_radial" r="1">
<stop offset="0.3533" stop-color="#FFCA28"/>
<stop offset="0.8723" stop-color="#FFB300"/>
</radialGradient>
</defs>
</svg>
