<?xml version="1.0" encoding="UTF-8" standalone="no"?>
<svg xmlns="http://www.w3.org/2000/svg" fill="none" height="720" viewBox="0 0 40 40" width="720">
<path d="M36.1623 19.8311C36.1623 28.8506 28.8506 36.1623 19.8311 36.1623C10.8117 36.1623 3.5 28.8506 3.5 19.8311C3.5 10.8117 10.8117 3.5 19.8311 3.5C28.8506 3.5 36.1623 10.8117 36.1623 19.8311Z" fill="url(#paint0_radial)" stroke="#29639F"/>
<path d="M24.2859 8.98237C24.2859 9.25654 24.0631 9.48086 23.7909 9.48086H22.8008C21.9791 9.48086 21.3157 10.1488 21.3157 10.9763V11.4748C21.3157 11.749 21.5385 11.9733 21.8107 11.9733H22.3058C22.8503 11.9733 23.2958 12.4219 23.2958 12.9702V13.4687C23.2958 13.7429 23.0731 13.9672 22.8008 13.9672H22.3058C21.7612 13.9672 21.3157 14.4158 21.3157 14.9642V15.9611H23.2958C23.8404 15.9611 24.2859 15.5125 24.2859 14.9642C24.2859 14.69 24.5087 14.4657 24.7809 14.4657H26.7611C27.3056 14.4657 27.7511 14.9143 27.7511 15.4627C27.7511 16.011 28.1967 16.4596 28.7412 16.4596H29.4838C29.8946 16.4596 30.2263 16.7936 30.2263 17.2073C30.2263 17.6211 29.8946 17.9551 29.4838 17.9551H27.2561C26.4344 17.9551 25.771 17.2871 25.771 16.4596H22.3058C20.39 16.4596 18.8405 18.0199 18.8405 19.949V21.9429C18.8405 23.8721 20.39 25.4323 22.3058 25.4323C23.9443 25.4323 25.276 26.7732 25.276 28.4232V32.9096C25.276 33.4579 25.7215 33.9065 26.266 33.9065H27.7511C28.8452 33.9065 29.7313 33.0142 29.7313 31.9126V30.9156C30.8253 30.9156 31.7114 30.0233 31.7114 28.9217V25.9308C31.7114 25.6566 31.9342 25.4323 32.2064 25.4323C33.0282 25.4323 33.6915 24.7643 33.6915 23.9369V21.9429C34.8697 21.9429 35.9241 21.4245 36.6518 20.602C36.6568 20.3877 36.6617 20.1683 36.6617 19.949C36.6617 14.4657 34.0727 9.58554 30.0629 6.48996L26.7611 6.48996C25.3948 6.48996 24.2859 7.60656 24.2859 8.98237Z" fill="#7EE339"/>
<path d="M13.3955 32.9094C15.0341 32.9094 16.3657 31.5685 16.3657 29.9185V27.9246C16.3657 26.2746 15.0341 24.9337 13.3955 24.9337C12.5737 24.9337 11.9104 24.2657 11.9104 23.4382C11.9104 22.3366 11.0243 21.4443 9.93026 21.4443H6.46503L6.46503 26.4291C6.46503 27.5308 7.35114 28.423 8.44516 28.423V32.4259C9.62334 33.5175 10.955 34.4397 12.4054 35.1575V33.9063C12.4054 33.358 12.851 32.9094 13.3955 32.9094Z" fill="#7EE339"/>
<path d="M3.49615 15.8504L3.49615 19.4495C3.49615 20.5511 4.38226 21.4434 5.47629 21.4434H6.46635V18.4525C6.46635 17.0767 7.57523 15.9601 8.94152 15.9601C11.6741 15.9601 13.8919 13.7269 13.8919 10.9753C13.8919 10.4269 14.3374 9.97829 14.8819 9.97829C15.7037 9.97829 16.367 9.31033 16.367 8.48284V6.9874H14.8819C14.3374 6.9874 13.8919 7.43603 13.8919 7.98436H13.3968C12.8523 7.98436 12.4068 7.53573 12.4068 6.9874V6.48891C12.4068 5.94058 12.8523 5.49195 13.3968 5.49195L14.3869 5.49195C14.6592 5.49195 14.8819 5.26763 14.8819 4.99346C14.8819 4.7193 15.1047 4.49498 15.377 4.49498H15.872C16.1443 4.49498 16.367 4.7193 16.367 4.99346C16.367 5.26763 16.5898 5.49195 16.8621 5.49195H17.3571C18.4511 5.49195 19.3372 4.59966 19.3372 3.49801V3.00452C11.6642 3.22883 5.27827 8.62741 3.49615 15.8504Z" fill="#7EE339"/>
<path d="M30.0622 6.48938H29.978C32.0027 9.28587 33.1957 12.7304 33.1957 16.459C33.1957 22.5256 30.0325 27.8444 25.2752 30.8403V32.909C25.2752 33.4573 25.7207 33.9059 26.2653 33.9059H27.7504C28.8444 33.9059 29.7305 33.0137 29.7305 31.912V30.915C30.8245 30.915 31.7106 30.0228 31.7106 28.9211V25.9302C31.7106 25.656 31.9334 25.4317 32.2057 25.4317C33.0274 25.4317 33.6908 24.7638 33.6908 23.9363V21.9424C34.869 21.9424 35.9234 21.4239 36.6511 20.6014C36.656 20.3871 36.661 20.1678 36.661 19.9484C36.661 14.4651 34.0719 9.58496 30.0622 6.48938Z" fill="#51C700"/>
<path d="M8.44244 32.4261C9.62062 33.5177 10.9523 34.4399 12.4027 35.1578V33.9066C12.4027 33.5377 12.6007 33.2187 12.8928 33.0492C11.3186 32.7152 9.82359 32.1619 8.44244 31.4191V32.4261Z" fill="#51C700"/>
<defs>
<radialGradient cx="0" cy="0" gradientTransform="translate(15.9431 16.9315) rotate(52.6319) scale(15.394)" gradientUnits="userSpaceOnUse" id="paint0_radial" r="1">
<stop stop-color="#82C1FF"/>
<stop offset="0.811098" stop-color="#347ECD"/>
<stop offset="1" stop-color="#2566AC"/>
</radialGradient>
</defs>
</svg>
